<?xml version="1.0" encoding="UTF-8"?>
<svg version="1.1" xmlns="http://www.w3.org/2000/svg" width="500" height="500">
<path d="M0 0 C10.0757815 -0.04657209 20.15153692 -0.08199459 30.22740459 -0.10362434 C34.90725729 -0.11401142 39.58703573 -0.12807662 44.2668457 -0.15087891 C48.79264354 -0.17278993 53.31837046 -0.18460667 57.8442173 -0.18975449 C59.56116666 -0.19341776 61.27811263 -0.20057002 62.99503136 -0.21146011 C87.39244646 -0.35989481 114.58849715 3.19186042 133.125 20.625 C140.97720083 28.94382752 146.76395012 38.90190381 152 49 C152.69370914 50.30163703 153.38914568 51.60235433 154.0859375 52.90234375 C157.72166578 59.6991642 161.28347753 66.52166404 164.6875 73.4375 C168.8514121 81.88525006 173.36411246 90.14175189 177.85498047 98.41894531 C181.12224525 104.4571815 184.30725195 110.51489509 187.3125 116.6875 C190.11642618 122.43792488 193.26808803 127.88209586 196.62597656 133.32519531 C200.88971002 140.30998621 204.44798874 147.63465784 208 155 C211.67099541 153.77633486 211.93153235 152.88356516 213.77734375 149.58984375 C214.29103516 148.68169922 214.80472656 147.77355469 215.33398438 146.83789062 C215.86314453 145.88076172 216.39230469 144.92363281 216.9375 143.9375 C217.46279297 143.00744141 217.98808594 142.07738281 218.52929688 141.11914062 C221.15251198 136.4472569 223.67623599 131.74545011 226.04077148 126.93774414 C232.46533494 113.9594392 239.54736648 101.30088203 246.54833984 88.62841797 C256.14349744 71.28043132 256.14349744 71.28043132 265.19506836 53.64599609 C267.47875873 49.01866023 269.83277026 44.43405748 272.25 39.875 C272.56743164 39.27115479 272.88486328 38.66730957 273.21191406 38.04516602 C275.26965153 34.18880156 277.41199767 30.51839986 280 27 C280.66 27 281.32 27 282 27 C282.26167969 26.40703125 282.52335937 25.8140625 282.79296875 25.203125 C289.04080718 13.7993034 304.70908613 7.57760218 316.56640625 3.9609375 C317.69949219 3.64382812 318.83257812 3.32671875 320 3 C320.83402344 2.76539062 321.66804688 2.53078125 322.52734375 2.2890625 C334.19622848 -0.62288342 346.49479916 -0.16245736 358.4375 -0.16796875 C360.09228544 -0.17118928 361.7470706 -0.17455393 363.40185547 -0.17805481 C366.84424501 -0.18399848 370.2866096 -0.18589921 373.72900391 -0.18530273 C378.13835576 -0.18520037 382.54754928 -0.1989502 386.9568634 -0.21607494 C390.36261738 -0.22718011 393.76833255 -0.22922254 397.17410278 -0.22869301 C398.80079707 -0.22987159 400.4274924 -0.23428656 402.0541687 -0.24202538 C404.32008192 -0.25181284 406.58564374 -0.24895435 408.8515625 -0.24291992 C410.78249756 -0.24505745 410.78249756 -0.24505745 412.75244141 -0.24723816 C415.78547417 -0.01633195 417.46472224 0.39251255 420 2 C419.3838475 6.50133635 417.57782121 10.14786625 415.5 14.125 C412.42163005 20.1358489 409.47840398 26.19184438 406.625 32.3125 C402.47099576 41.16447457 397.96551566 49.80037085 393.36523438 58.42675781 C390.86189026 63.14514961 388.40281 67.88665935 385.9375 72.625 C382.40370748 79.41143051 378.84670765 86.18422471 375.25 92.9375 C370.68283895 101.52738557 366.35029374 110.22809355 362.03662109 118.94726562 C358.12207781 126.85182284 354.12638573 134.70362468 350 142.5 C345.90801522 150.23275032 341.94528913 158.01936862 338.0625 165.85888672 C335.62815853 170.76448752 333.1723976 175.65945263 330.71972656 180.5559082 C328.73337438 184.5236352 326.75349453 188.49407828 324.796875 192.4765625 C319.24502714 203.74600451 319.24502714 203.74600451 316.125 208.6875 C312.55624745 214.43608518 309.82445039 220.57736344 306.95800781 226.69482422 C303.69485477 233.62628689 300.22091519 240.41606769 296.61474609 247.17431641 C293.94643404 252.17989747 291.37896219 257.22296499 288.875 262.3125 C279.39656763 281.43041756 268.52330997 300.43826514 250 312 C248.83017578 312.75796875 248.83017578 312.75796875 247.63671875 313.53125 C229.3374334 323.72462969 205.27437706 324.43683348 185.4609375 319.03515625 C164.88980324 312.26173399 149.65206381 298.57932309 139.34375 279.8046875 C138.90969849 279.01839462 138.47564697 278.23210175 138.02844238 277.42198181 C133.76981656 269.66137916 129.71001793 261.80272132 125.69619751 253.91339111 C123.64137845 249.87504809 121.57579531 245.84221057 119.51171875 241.80859375 C119.11373581 241.03020142 118.71575287 240.25180908 118.30570984 239.4498291 C115.3420971 233.65683457 112.34987052 227.87972575 109.3125 222.125 C108.74039795 221.04061646 108.74039795 221.04061646 108.15673828 219.93432617 C106.42423662 216.66075312 104.6760037 213.39632877 102.91015625 210.140625 C99.4546881 203.7558604 96.17289956 197.34038114 93.125 190.75 C88.13016546 179.9530349 82.49360443 169.50475891 76.8671875 159.02734375 C71.72054313 149.4359835 66.82804604 139.73459694 62 129.97949219 C58.4270088 122.76721405 54.8149476 115.58782989 51 108.5 C46.49555458 100.1311451 42.27743213 91.62670776 38.06445312 83.10839844 C33.28836531 73.46029715 28.35506638 63.90204359 23.36132812 54.36474609 C19.48443747 46.9521016 15.70936514 39.49802787 12 32 C10.99349348 29.98241425 9.9848603 27.96590923 8.97509766 25.94995117 C8.29143861 24.58279395 7.61006543 23.21449091 6.93115234 21.8449707 C5.36432199 18.68928007 3.77368608 15.55599175 2.08984375 12.4609375 C1.52394531 11.40132812 0.95804688 10.34171875 0.375 9.25 C-0.38683594 7.86554688 -0.38683594 7.86554688 -1.1640625 6.453125 C-2 4 -2 4 -1.05224609 1.84667969 C-0.53138428 0.93257324 -0.53138428 0.93257324 0 0 Z " fill="#60328C" transform="translate(50,94)"/>
<path d="M0 0 C0.71109421 0.00404846 1.42218842 0.00809692 2.15483093 0.01226807 C2.90477325 0.00876343 3.65471558 0.00525879 4.42738342 0.00164795 C6.91890099 -0.00718637 9.41013637 -0.00130784 11.9016571 0.00543213 C13.63885553 0.00408441 15.37605359 0.00214298 17.11325073 -0.00036621 C20.76598173 -0.00332104 24.41861517 0.00098589 28.07133484 0.01031494 C32.71999708 0.02161672 37.368426 0.01521184 42.01707935 0.00317001 C45.61281024 -0.00411889 49.20848754 -0.00172712 52.8042202 0.0034256 C54.51557633 0.00474763 56.22693754 0.00316589 57.93828773 -0.00153351 C82.31674492 -0.05370945 109.48486286 3.47630979 128.00712585 20.89605713 C135.85932668 29.21488464 141.64607598 39.17296094 146.88212585 49.27105713 C147.57583499 50.57269416 148.27127153 51.87341146 148.96806335 53.17340088 C152.60379163 59.97022133 156.16560339 66.79272117 159.56962585 73.70855713 C163.73353796 82.15630718 168.24623831 90.41280902 172.73710632 98.69000244 C176.00437111 104.72823863 179.18937781 110.78595222 182.19462585 116.95855713 C184.99855204 122.70898201 188.15021389 128.15315299 191.50810242 133.59625244 C195.77183587 140.58104334 199.33011459 147.90571497 202.88212585 155.27105713 C206.55312126 154.04739199 206.8136582 153.15462229 208.6594696 149.86090088 C209.17316101 148.95275635 209.68685242 148.04461182 210.21611023 147.10894775 C210.74527039 146.15181885 211.27443054 145.19468994 211.81962585 144.20855713 C212.34491882 143.27849854 212.87021179 142.34843994 213.41142273 141.39019775 C216.03463784 136.71831403 218.55836184 132.01650724 220.92289734 127.20880127 C227.34746079 114.23049633 234.42949234 101.57193916 241.4304657 88.8994751 C251.0256233 71.55148845 251.0256233 71.55148845 260.07719421 53.91705322 C262.36088459 49.28971736 264.71489612 44.70511461 267.13212585 40.14605713 C267.4495575 39.54221191 267.76698914 38.9383667 268.09403992 38.31622314 C270.15177738 34.45985869 272.29412353 30.78945699 274.88212585 27.27105713 C275.54212585 27.27105713 276.20212585 27.27105713 276.88212585 27.27105713 C277.14380554 26.67808838 277.40548523 26.08511963 277.6750946 25.47418213 C283.92293303 14.07036053 299.59121198 7.84865931 311.4485321 4.23199463 C312.58161804 3.91488525 313.71470398 3.59777588 314.88212585 3.27105713 C315.71614929 3.03644775 316.55017273 2.80183838 317.4094696 2.56011963 C329.07835433 -0.35182629 341.37692501 0.10859977 353.31962585 0.10308838 C354.97441129 0.09986785 356.62919645 0.0965032 358.28398132 0.09300232 C361.72637087 0.08705865 365.16873546 0.08515791 368.61112976 0.08575439 C373.02048161 0.08585676 377.42967514 0.07210692 381.83898926 0.05498219 C385.24474323 0.04387702 388.65045841 0.04183458 392.05622864 0.04236412 C393.68292292 0.04118554 395.30961825 0.03677057 396.93629456 0.02903175 C399.20220778 0.01924428 401.46776959 0.02210278 403.73368835 0.02813721 C405.66462341 0.02599968 405.66462341 0.02599968 407.63456726 0.02381897 C410.66760003 0.25472518 412.34684809 0.66356968 414.88212585 2.27105713 C414.26597858 6.77235525 412.46006107 10.41896044 410.38212585 14.39605713 C406.77746497 21.432428 403.35712776 28.53995789 400.02861023 35.71099854 C394.2143293 48.13410792 394.2143293 48.13410792 389.88212585 52.27105713 C388.68613517 54.30337955 388.68613517 54.30337955 387.69462585 56.45855713 C387.17835632 57.53170166 387.17835632 57.53170166 386.6516571 58.62652588 C386.39771179 59.16922119 386.14376648 59.7119165 385.88212585 60.27105713 C381.25868331 59.82362721 376.83655416 59.28985915 372.31962585 58.20855713 C353.80910487 54.37978685 335.17105326 58.50974783 319.31181335 68.42730713 C307.39317406 76.35282269 296.78412939 86.5958375 287.4785614 97.41851807 C284.63892673 100.71369285 281.65796152 103.88087523 278.70243835 107.07183838 C276.25897436 109.77435288 273.99976244 112.60785148 271.7219696 115.45074463 C266.92004132 121.34813769 261.71709927 126.73298428 256.31962585 132.08355713 C255.42566101 132.98525635 254.53169617 133.88695557 253.61064148 134.815979 C248.64656758 139.76552745 243.65539445 144.28952123 237.88212585 148.27105713 C236.67362976 149.12377197 236.67362976 149.12377197 235.4407196 149.99371338 C221.85508833 158.5754289 207.28202216 161.70240935 191.4954071 158.60699463 C168.04094414 151.55532602 148.30166347 130.27111624 133.65556335 111.48590088 C131.47438999 108.76183635 129.070125 106.37026993 126.5657196 103.94683838 C122.94011453 100.33805746 119.63568671 96.40562728 116.38993835 92.45465088 C113.22431068 88.63023042 109.85775897 85.3542008 106.0657196 82.14996338 C104.54519881 80.84160827 103.06014321 79.49137205 101.6047821 78.11090088 C90.13954182 67.27745666 75.14199114 57.71370319 58.88212585 57.27105713 C57.89341492 57.22078369 56.90470398 57.17051025 55.8860321 57.11871338 C48.23612968 56.90163329 41.12696486 57.70994862 33.6558075 59.20367432 C25.57836995 60.81667145 25.57836995 60.81667145 22.88212585 60.27105713 C18.86945906 56.31319155 16.46571725 51.9483584 14.06962585 46.89605713 C13.37583412 45.47147144 12.68181735 44.04699533 11.9875946 42.62261963 C11.63874207 41.89977783 11.28988953 41.17693604 10.9304657 40.43218994 C9.27966086 37.02908691 7.57930009 33.65119982 5.88212585 30.27105713 C5.22444595 28.95341259 4.56689455 27.6357039 3.9094696 26.31793213 C2.49589154 23.48939082 1.06939841 20.66774473 -0.3639679 17.84918213 C-0.73070618 17.124729 -1.09744446 16.40027588 -1.47529602 15.65386963 C-2.17773221 14.26678045 -2.88329628 12.88126931 -3.59248352 11.49761963 C-6.86799643 5.01330486 -6.86799643 5.01330486 -7.11787415 2.27105713 C-4.67167352 -0.1751435 -3.33870676 0.02902682 0 0 Z " fill="#DECBE7" transform="translate(55.11787414550781,93.72894287109375)"/>
<path d="M0 0 C0.33 0.66 0.66 1.32 1 2 C-0.2381763 4.6102095 -1.53681505 7.10332313 -2.9375 9.625 C-3.78156213 11.17881171 -4.62397526 12.73352018 -5.46484375 14.2890625 C-6.10655518 15.47290527 -6.10655518 15.47290527 -6.76123047 16.68066406 C-8.5796764 20.08532239 -10.2941141 23.53794033 -12 27 C-15.09982635 33.26463533 -18.33326324 39.44808513 -21.62915039 45.61157227 C-24.68600862 51.34907022 -27.60129867 57.15033475 -30.4375 63 C-31.76055512 65.69593241 -32.86032086 67.86032086 -35 70 C-35 69.34 -35 68.68 -35 68 C-58.42236032 72.38556747 -75.32912997 80.62391599 -92.35058594 97.37695312 C-93.76553693 98.769285 -95.19754687 100.1442436 -96.6328125 101.515625 C-102.8904054 107.57698677 -108.62135205 114.19068054 -113.6328125 121.32421875 C-114.30957031 122.15373047 -114.30957031 122.15373047 -115 123 C-115.66 123 -116.32 123 -117 123 C-117.24363281 123.56203125 -117.48726562 124.1240625 -117.73828125 124.703125 C-119.24180936 127.44019785 -121.06699748 129.45795941 -123.1875 131.75 C-126.02417999 134.8404405 -128.83145241 137.94087539 -131.5625 141.125 C-143.31439449 154.51357386 -159.36822271 169.62818239 -178 171 C-195.88292625 172.15416187 -210.74239708 168.07673032 -224.86328125 156.69140625 C-227.29084125 154.50697062 -229.64702844 152.26410033 -232 150 C-233.22133464 148.9698092 -234.44977697 147.94794203 -235.6875 146.9375 C-238.8203958 144.27198259 -241.46376158 141.32192555 -244.125 138.19140625 C-246.16137825 135.81138917 -248.26328552 133.50085389 -250.375 131.1875 C-253.40973184 127.83198275 -256.3041891 124.41161818 -259.125 120.875 C-264.81903312 113.84236962 -271.04720334 107.3154186 -277.29931641 100.77978516 C-278.72150878 99.2914443 -280.13350322 97.79336754 -281.54296875 96.29296875 C-291.01654642 86.43975773 -301.63508914 79.58710787 -314 74 C-314.69351563 73.67257813 -315.38703125 73.34515625 -316.1015625 73.0078125 C-319.31653754 71.63401259 -322.61411115 70.82277247 -326.0390625 70.16015625 C-326.77012207 70.01868164 -327.50118164 69.87720703 -328.25439453 69.73144531 C-331.49841423 69.12623355 -334.74728628 68.556593 -338 68 C-337.67 69.65 -337.34 71.3 -337 73 C-339.96494537 69.37098169 -342.03092076 65.3848018 -344.1875 61.25 C-344.58187256 60.49920166 -344.97624512 59.74840332 -345.38256836 58.97485352 C-349.36106276 51.36925988 -353.19293977 43.69242434 -357 36 C-358.39321861 33.18619366 -359.78913067 30.37375005 -361.1875 27.5625 C-361.51878906 26.89379883 -361.85007812 26.22509766 -362.19140625 25.53613281 C-364.38056169 21.1468322 -366.7143917 16.87979113 -369.28515625 12.69921875 C-370 11 -370 11 -369 8 C-368.67 8.99 -368.34 9.98 -368 11 C-367.0821875 10.79503906 -366.164375 10.59007812 -365.21875 10.37890625 C-343.24504952 5.55484806 -322.28459947 5.09011404 -302.3125 17.1875 C-297.3323295 20.54911509 -292.95649989 24.45034731 -288.58984375 28.56640625 C-285.64021 31.33808321 -282.57368354 33.94185878 -279.4609375 36.52734375 C-278 38 -278 38 -277 41 C-275.515 41.495 -275.515 41.495 -274 42 C-272.4921875 43.49609375 -272.4921875 43.49609375 -270.875 45.4375 C-268.23656723 48.54963886 -265.55987421 51.60837314 -262.8125 54.625 C-260.28571208 57.4146417 -257.79700058 60.223512 -255.390625 63.1171875 C-241.85381928 79.36135436 -226.23599465 98.06513903 -206 106 C-205.31679687 106.29519531 -204.63359375 106.59039062 -203.9296875 106.89453125 C-190.56659402 111.85473036 -175.6801157 109.75601256 -163 104 C-152.85285969 98.8969666 -145.00671536 91.87818901 -137 84 C-135.87005039 82.90858624 -134.73984033 81.81744207 -133.609375 80.7265625 C-127.83497379 75.10257985 -122.52502581 69.3501252 -117.515625 63.0234375 C-113.70394457 58.44231847 -109.5981664 54.14829377 -105.49072266 49.83276367 C-102.38327182 46.56347502 -99.33865006 43.26597591 -96.390625 39.8515625 C-82.95662981 24.39061118 -63.55226743 9.04336477 -42.453125 7.1328125 C-41.64359375 7.08898437 -40.8340625 7.04515625 -40 7 C-38.32164062 6.90332031 -38.32164062 6.90332031 -36.609375 6.8046875 C-25.63073703 6.47664055 -15.63996205 8.40940055 -5 11 C-4.70351563 10.06929687 -4.40703125 9.13859375 -4.1015625 8.1796875 C-3.04634464 5.13377495 -1.74489844 2.69666122 0 0 Z " fill="#A178B6" transform="translate(446,143)"/>
<path d="M0 0 C0.99 0 1.98 0 3 0 C1.51760276 4.88810987 -0.50305113 9.2799368 -2.8125 13.8125 C-3.34327148 14.864375 -3.34327148 14.864375 -3.88476562 15.9375 C-6.46740083 21.02750236 -9.14414485 26.05717377 -12 31 C-13 29 -13 29 -13 25 C-12.01 25 -11.02 25 -10 25 C-10 24.34 -10 23.68 -10 23 C-10.66 22.67 -11.32 22.34 -12 22 C-11.66226562 21.41992188 -11.32453125 20.83984375 -10.9765625 20.2421875 C-8.95211341 16.69647609 -7.14809146 13.47911942 -5.9375 9.5625 C-4.78452808 6.41104342 -3.88587784 6.3963925 -1 5 C-0.18828772 2.44480079 -0.18828772 2.44480079 0 0 Z " fill="#735391" transform="translate(343,340)"/>
<path d="M0 0 C0.99 0 1.98 0 3 0 C-0.2461057 9.46496084 -8.33782211 16.88278441 -16 23 C-17.125 19.25 -17.125 19.25 -16 17 C-16.66 16.67 -17.32 16.34 -18 16 C-17.67 15.67 -17.34 15.34 -17 15 C-15.329375 15.061875 -15.329375 15.061875 -13.625 15.125 C-10.14103293 15.31070511 -10.14103293 15.31070511 -8.125 13.8125 C-6.73770965 11.5774211 -6.35012787 9.59094622 -6 7 C-5.01 7.33 -4.02 7.66 -3 8 C-3 7.01 -3 6.02 -3 5 C-2.34 5 -1.68 5 -1 5 C-0.67 3.35 -0.34 1.7 0 0 Z " fill="#775D91" transform="translate(322,379)"/>
<path d="M0 0 C2.31 0 4.62 0 7 0 C5.73412642 2.58587003 4.46254151 5.16865501 3.1875 7.75 C2.83107422 8.47960937 2.47464844 9.20921875 2.10742188 9.9609375 C0.32469483 13.55910218 -1.41088339 16.89632709 -4 20 C-4.33 18.68 -4.66 17.36 -5 16 C-4.34 15.67 -3.68 15.34 -3 15 C-2.34786708 12.97536745 -2.34786708 12.97536745 -2 11 C-1.34 11 -0.68 11 0 11 C0 7.37 0 3.74 0 0 Z " fill="#785A92" transform="translate(361,299)"/>
<path d="M0 0 C1.86328125 0.2109375 1.86328125 0.2109375 4 1 C7.10645166 6.14783418 8.4837985 12.06368271 9 18 C6.60877931 14.96250345 4.67745591 11.82204961 2.8125 8.4375 C2.28269531 7.48746094 1.75289062 6.53742188 1.20703125 5.55859375 C0 3 0 3 0 0 Z " fill="#765990" transform="translate(177,348)"/>
<path d="M0 0 C0.99 0.33 1.98 0.66 3 1 C3.71578516 2.56791035 4.41729884 4.14400236 5.04296875 5.75 C8.21391433 13.39693162 8.21391433 13.39693162 13 20 C13.04063832 21.66617115 13.042721 23.33388095 13 25 C9.67558447 20.74807918 7.30718199 16.14372163 4.8125 11.375 C4.34908203 10.50359375 3.88566406 9.6321875 3.40820312 8.734375 C2.75174805 7.48527344 2.75174805 7.48527344 2.08203125 6.2109375 C1.68218018 5.45087402 1.2823291 4.69081055 0.87036133 3.90771484 C0 2 0 2 0 0 Z " fill="#A58AAF" transform="translate(92,183)"/>
<path d="M0 0 C0.99 0.495 0.99 0.495 2 1 C2 1.66 2 2.32 2 3 C5.3 2.67 8.6 2.34 12 2 C11.67 3.65 11.34 5.3 11 7 C9.35 7.33 7.7 7.66 6 8 C5.34 7.01 4.68 6.02 4 5 C3.34 5.66 2.68 6.32 2 7 C0.5393715 4.35261084 0 3.10551666 0 0 Z " fill="#A68CB3" transform="translate(76,151)"/>
<path d="M0 0 C0.33 1.32 0.66 2.64 1 4 C1.66 4 2.32 4 3 4 C1.45454854 9.47932789 -1.15543212 14.11429181 -4 19 C-5.53445094 15.93109813 -4.54984289 13.29905734 -4 10 C-3.34 10 -2.68 10 -2 10 C-1.34 6.7 -0.68 3.4 0 0 Z " fill="#77598B" transform="translate(395,235)"/>
<path d="M0 0 C0.71484375 1.578125 0.71484375 1.578125 1 4 C-0.05709499 6.38494456 -1.1317889 8.51234067 -2.4375 10.75 C-2.77587891 11.35199219 -3.11425781 11.95398438 -3.46289062 12.57421875 C-4.29768265 14.05568065 -5.14741494 15.52870608 -6 17 C-7.30249153 13.40144968 -6.69931441 11.41900527 -5.25 7.9375 C-4.73179687 6.65166016 -4.73179687 6.65166016 -4.203125 5.33984375 C-3.03735083 3.07264009 -1.90347394 1.66827457 0 0 Z " fill="#977EA0" transform="translate(438,157)"/>
<path d="M0 0 C3.37462715 0.54723683 5.08235 1.0549 8 3 C8 3.66 8 4.32 8 5 C8.99 5.33 9.98 5.66 11 6 C11.6875 8.0625 11.6875 8.0625 12 10 C8.78727751 8.56006357 6.3793336 6.76981628 3.75 4.4375 C3.04359375 3.81746094 2.3371875 3.19742187 1.609375 2.55859375 C1.07828125 2.04425781 0.5471875 1.52992188 0 1 C0 0.67 0 0.34 0 0 Z " fill="#72588D" transform="translate(203,392)"/>
<path d="M0 0 C0.99 0.33 1.98 0.66 3 1 C3.33 1.99 3.66 2.98 4 4 C4.639375 4.61875 5.27875 5.2375 5.9375 5.875 C8.91876936 8.94661085 9.93560585 11.55113173 10.125 15.8125 C10.08375 16.534375 10.0425 17.25625 10 18 C7.16811225 14.5494537 5.25496982 10.74037641 3.3125 6.75 C2.99216797 6.1003125 2.67183594 5.450625 2.34179688 4.78125 C1.55752859 3.18930243 0.77825745 1.59489471 0 0 Z " fill="#785F8E" transform="translate(119,237)"/>
<path d="M0 0 C1 2 1 2 0.41088867 3.77172852 C-0.08060669 4.81478149 -0.08060669 4.81478149 -0.58203125 5.87890625 C-0.93716797 6.63494141 -1.29230469 7.39097656 -1.65820312 8.16992188 C-2.22958008 9.35424805 -2.22958008 9.35424805 -2.8125 10.5625 C-3.18181641 11.35591797 -3.55113281 12.14933594 -3.93164062 12.96679688 C-6.73943452 18.86971726 -6.73943452 18.86971726 -9 20 C-9.1875 17.125 -9.1875 17.125 -9 14 C-8.01 13.34 -7.02 12.68 -6 12 C-4.83864986 9.39407523 -4.83864986 9.39407523 -3.9375 6.4375 C-3.34477166 4.60694542 -2.70915363 2.78867495 -2 1 C-1.34 0.67 -0.68 0.34 0 0 Z " fill="#B1A5B5" transform="translate(459,117)"/>
<path d="M0 0 C2.5 1.8125 2.5 1.8125 5 4 C5 4.99 5 5.98 5 7 C5.66 7 6.32 7 7 7 C7.66 10.3 8.32 13.6 9 17 C6.01923835 14.01923835 4.65457867 11.68078579 2.8125 7.9375 C2.28269531 6.87402344 1.75289062 5.81054688 1.20703125 4.71484375 C0 2 0 2 0 0 Z " fill="#7E5F94" transform="translate(129,255)"/>
<path d="M0 0 C0.99 0.33 1.98 0.66 3 1 C1.50829734 5.9723422 -0.60457417 10.41845739 -3 15 C-4.15941038 11.52176885 -3.70820884 9.54104422 -3 6 C-2.34 6 -1.68 6 -1 6 C-0.67 4.02 -0.34 2.04 0 0 Z " fill="#806596" transform="translate(404,220)"/>
<path d="M0 0 C3.48435804 4.59301742 5.26283775 7.08615072 5 13 C1.95950199 9.35140239 0.03481238 5.2555467 -2 1 C-1.34 0.67 -0.68 0.34 0 0 Z " fill="#71558A" transform="translate(188,366)"/>
<path d="M0 0 C0.33 0.99 0.66 1.98 1 3 C1.99 3.33 2.98 3.66 4 4 C5.60650951 7.21301903 6.51938371 10.44343948 7 14 C6.67 14.66 6.34 15.32 6 16 C3.69 11.05 1.38 6.1 -1 1 C-0.67 0.67 -0.34 0.34 0 0 Z " fill="#806298" transform="translate(159,311)"/>
<path d="M0 0 C3.42156094 1.06186374 4.03200161 2.06057448 5.75 5.3125 C6.84911426 8.55488708 7.30531083 10.64158092 7 14 C3.94998169 10.33997803 0 4.92148529 0 0 Z " fill="#7B6292" transform="translate(150,296)"/>
<path d="M0 0 C0.99 0 1.98 0 3 0 C1.50829734 4.9723422 -0.60457417 9.41845739 -3 14 C-3.33 14 -3.66 14 -4 14 C-4 12.02 -4 10.04 -4 8 C-3.34 8 -2.68 8 -2 8 C-2 6.68 -2 5.36 -2 4 C-1.34 4 -0.68 4 0 4 C0 2.68 0 1.36 0 0 Z " fill="#836598" transform="translate(380,268)"/>
<path d="M0 0 C2.94885691 2.94885691 4.6842806 6.0528418 6 10 C6.66 10 7.32 10 8 10 C7.67 11.32 7.34 12.64 7 14 C3.66144681 11.00681438 1.72601391 8.14243338 0 4 C0 2.68 0 1.36 0 0 Z " fill="#A087AB" transform="translate(83,163)"/>
<path d="M0 0 C0.99 0 1.98 0 3 0 C1.77782954 4.04256383 0.37245704 7.49288959 -2 11 C-2.33 11 -2.66 11 -3 11 C-3.32136655 6.39374606 -2.91033076 3.66486096 0 0 Z " fill="#AB91B3" transform="translate(419,192)"/>
<path d="M0 0 C4.4571874 0.26218749 6.51522698 0.57711289 9.9375 3.5625 C10.618125 4.366875 11.29875 5.17125 12 6 C8.55639368 6 7.25204608 5.20408468 4.3125 3.5 C3.50425781 3.0359375 2.69601563 2.571875 1.86328125 2.09375 C1.24839844 1.7328125 0.63351563 1.371875 0 1 C0 0.67 0 0.34 0 0 Z " fill="#73558B" transform="translate(215,402)"/>
<path d="M0 0 C-1.279673 2.55934601 -2.24201036 2.6989233 -4.875 3.6875 C-5.57367188 3.95949219 -6.27234375 4.23148437 -6.9921875 4.51171875 C-9 5 -9 5 -12 4 C-11 2 -11 2 -8.25 0.875 C-5.29813104 0.08026605 -3.02780163 -0.17810598 0 0 Z " fill="#876D9B" transform="translate(296,407)"/>
<path d="M0 0 C0.99 0 1.98 0 3 0 C1.68938409 4.23429756 0.05643741 8.07407404 -2 12 C-2.33 12 -2.66 12 -3 12 C-3 9.69 -3 7.38 -3 5 C-2.34 5 -1.68 5 -1 5 C-0.67 3.35 -0.34 1.7 0 0 Z " fill="#806994" transform="translate(343,340)"/>
<path d="M0 0 C0.66 0.66 1.32 1.32 2 2 C1.60761402 5.66226912 -0.31566883 8.77780124 -2 12 C-3.1171875 10.265625 -3.1171875 10.265625 -4 8 C-3.3203125 5.859375 -3.3203125 5.859375 -2.125 3.75 C-1.73570312 3.04359375 -1.34640625 2.3371875 -0.9453125 1.609375 C-0.63335937 1.07828125 -0.32140625 0.5471875 0 0 Z " fill="#7A5890" transform="translate(386,256)"/>
<path d="M0 0 C0.66 0.33 1.32 0.66 2 1 C0.02 3.31 -1.96 5.62 -4 8 C-4.33 7.01 -4.66 6.02 -5 5 C-5.99 4.67 -6.98 4.34 -8 4 C-6.71349294 3.30289269 -5.42059335 2.61757124 -4.125 1.9375 C-3.40570313 1.55464844 -2.68640625 1.17179688 -1.9453125 0.77734375 C-1.30335938 0.52082031 -0.66140625 0.26429688 0 0 Z " fill="#9675A7" transform="translate(285,246)"/>
<path d="M0 0 C0.99 0 1.98 0 3 0 C4.60355101 3.50776784 5.22036864 6.14354879 5 10 C2.66063182 7.87330165 1.19346152 5.93775144 0 3 C0 2.01 0 1.02 0 0 Z " fill="#8469A1" transform="translate(112,221)"/>
<path d="M0 0 C0 0.66 0 1.32 0 2 C-2.64 2.33 -5.28 2.66 -8 3 C-8 2.01 -8 1.02 -8 0 C-4.71023192 -1.09658936 -3.28696233 -0.79953138 0 0 Z " fill="#6C518A" transform="translate(284,411)"/>
<path d="M0 0 C2.94956528 1.36944102 5.52468811 2.87830409 8 5 C8 5.66 8 6.32 8 7 C7.01 7.33 6.02 7.66 5 8 C4.67 7.01 4.34 6.02 4 5 C3.01 4.34 2.02 3.68 1 3 C0.34 3.66 -0.32 4.32 -1 5 C-0.67 3.35 -0.34 1.7 0 0 Z " fill="#9571A4" transform="translate(212,231)"/>
<path d="M0 0 C0 0.66 0 1.32 0 2 C-2.8125 4.1875 -2.8125 4.1875 -6 6 C-6.99 5.67 -7.98 5.34 -9 5 C-4.16129032 0 -4.16129032 0 0 0 Z " fill="#A87AC1" transform="translate(373,222)"/>
<path d="M0 0 C0.33 0.66 0.66 1.32 1 2 C0.22265625 3.9453125 0.22265625 3.9453125 -0.9375 6.125 C-1.31777344 6.84945312 -1.69804687 7.57390625 -2.08984375 8.3203125 C-2.39019531 8.87460938 -2.69054687 9.42890625 -3 10 C-3.66 9.01 -4.32 8.02 -5 7 C-2.25 1.125 -2.25 1.125 0 0 Z " fill="#A187AA" transform="translate(415,203)"/>
<path d="M0 0 C0.99 0.99 1.98 1.98 3 3 C0.33333333 4.33333333 -2.33333333 5.66666667 -5 7 C-4.60196439 4.11424181 -4.20990931 3.17810487 -1.9375 1.25 C-1.298125 0.8375 -0.65875 0.425 0 0 Z " fill="#9371A4" transform="translate(340,195)"/>
<path d="M0 0 C1.32 0.33 2.64 0.66 4 1 C4.66 3.97 5.32 6.94 6 10 C2.62358918 6.62358918 1.72549695 4.35482564 0 0 Z " fill="#7E6297" transform="translate(171,338)"/>
<path d="M0 0 C0.66 0 1.32 0 2 0 C3.5078125 1.53125 3.5078125 1.53125 5.125 3.5 C5.66382813 4.1496875 6.20265625 4.799375 6.7578125 5.46875 C7.16773438 5.9740625 7.57765625 6.479375 8 7 C7.67 7.66 7.34 8.32 7 9 C6.236875 8.175 5.47375 7.35 4.6875 6.5 C2.24565858 3.65944803 2.24565858 3.65944803 -1 4 C-0.67 2.68 -0.34 1.36 0 0 Z " fill="#9472A5" transform="translate(194,212)"/>
<path d="M0 0 C0.33 1.32 0.66 2.64 1 4 C1.66 4 2.32 4 3 4 C2.39816251 6.02045442 1.72693904 8.02111039 1 10 C0.01 10.495 0.01 10.495 -1 11 C-1.125 3.375 -1.125 3.375 0 0 Z " fill="#7E6096" transform="translate(395,235)"/>
<path d="M0 0 C3.55007718 3.9050849 4.81819916 6.97734643 6 12 C4 11 4 11 3 8 C2.34 7.67 1.68 7.34 1 7 C0.59270772 4.67843403 0.25561323 2.3431213 0 0 Z " fill="#59377A" transform="translate(118,230)"/>
<path d="M0 0 C-2.84685749 2.31966166 -5.4763875 3.91581154 -9 5 C-9.99 4.67 -10.98 4.34 -12 4 C-10.56988027 3.13353333 -9.13059381 2.28218171 -7.6875 1.4375 C-6.48673828 0.72400391 -6.48673828 0.72400391 -5.26171875 -0.00390625 C-3 -1 -3 -1 0 0 Z " fill="#68398A" transform="translate(385,219)"/>
<path d="M0 0 C0.33 0.99 0.66 1.98 1 3 C0 5 0 5 -3.0625 6.125 C-4.031875 6.41375 -5.00125 6.7025 -6 7 C-4.60667426 3.63279613 -3.0210714 2.0140476 0 0 Z " fill="#9472A6" transform="translate(348,186)"/>
<path d="M0 0 C0.96516243 3.00272755 1.22393475 5.04215769 0 8 C-0.99 8.33 -1.98 8.66 -3 9 C-3.33 8.01 -3.66 7.02 -4 6 C-3.525625 5.566875 -3.05125 5.13375 -2.5625 4.6875 C-0.76313043 2.97690387 -0.76313043 2.97690387 0 0 Z " fill="#573476" transform="translate(351,324)"/>
<path d="M0 0 C3 1 3 1 4.75 4.3125 C5.97848812 7.93653994 6.10235591 8.6258971 5 12 C4.16180842 10.37750059 3.3295884 8.75191503 2.5 7.125 C2.0359375 6.22007812 1.571875 5.31515625 1.09375 4.3828125 C0 2 0 2 0 0 Z " fill="#B29FBB" transform="translate(92,183)"/>
<path d="M0 0 C2.475 0.99 2.475 0.99 5 2 C5 2.99 5 3.98 5 5 C3.68 4.67 2.36 4.34 1 4 C0.67 2.68 0.34 1.36 0 0 Z " fill="#9473A3" transform="translate(224,241)"/>
<path d="M0 0 C0.99 0.66 1.98 1.32 3 2 C1.33333333 3.66666667 -0.33333333 5.33333333 -2 7 C-2.33 5.35 -2.66 3.7 -3 2 C-2.01 1.34 -1.02 0.68 0 0 Z " fill="#E4D7E9" transform="translate(52,96)"/>
<path d="M0 0 C-4.30769231 3.07692308 -4.30769231 3.07692308 -7.8125 2.6875 C-8.534375 2.460625 -9.25625 2.23375 -10 2 C-6.80505194 -1.19494806 -4.22040044 -1.35655728 0 0 Z " fill="#9675A5" transform="translate(276,252)"/>
<path d="M0 0 C2 1 2 1 2.75 2.875 C3 5 3 5 1 8 C-0.42944945 5.64561267 -1.08661261 4.51967567 -0.625 1.75 C-0.41875 1.1725 -0.2125 0.595 0 0 Z " fill="#917A99" transform="translate(80,155)"/>
<path d="M0 0 C0.99 0.33 1.98 0.66 3 1 C0.82575883 3.50037734 -0.73045798 4.43628586 -4 5 C-4 4.01 -4 3.02 -4 2 C-2.68 2 -1.36 2 0 2 C0 1.34 0 0.68 0 0 Z " fill="#856E9A" transform="translate(300,402)"/>
<path d="M0 0 C1.98 0 3.96 0 6 0 C5.67 1.98 5.34 3.96 5 6 C4.34 5.34 3.68 4.68 3 4 C3 3.01 3 2.02 3 1 C2.01 0.67 1.02 0.34 0 0 Z " fill="#7E5E98" transform="translate(405,211)"/>
<path d="M0 0 C2.375 0.3125 2.375 0.3125 5 1 C5.66 1.99 6.32 2.98 7 4 C4 4 4 4 1 3 C0.67 2.01 0.34 1.02 0 0 Z " fill="#916FA2" transform="translate(152,170)"/>
</svg>
